<svg width="80" height="18" viewBox="0 0 80 18" fill="none" xmlns="http://www.w3.org/2000/svg">
<g clip-path="url(#clip0_212_723)">
<path d="M24.8646 2.77621C24.572 1.68287 23.7127 0.823665 22.6194 0.530992C20.6397 1.58946e-07 12.6978 0 12.6978 0C12.6978 0 4.75593 1.58946e-07 2.7762 0.530992C1.68287 0.823665 0.823665 1.68287 0.530992 2.77621C1.58946e-07 4.75593 0 8.88889 0 8.88889C0 8.88889 1.58946e-07 13.0219 0.530992 15.0016C0.823665 16.0949 1.68287 16.9541 2.7762 17.2468C4.75593 17.7778 12.6978 17.7778 12.6978 17.7778C12.6978 17.7778 20.6397 17.7778 22.6194 17.2468C23.7127 16.9541 24.572 16.0949 24.8646 15.0016C25.3956 13.0219 25.3956 8.88889 25.3956 8.88889C25.3956 8.88889 25.3935 4.75593 24.8646 2.77621Z" fill="#FF0000"/>
<path d="M10.1558 12.6982L16.7535 8.88928L10.1558 5.08032V12.6982Z" fill="white"/>
<path d="M30.7577 11.5588L27.9062 1.26086H30.394L31.3933 5.92899C31.6483 7.07878 31.8343 8.05923 31.9556 8.87035H32.0287C32.1124 8.28919 32.3006 7.31501 32.5911 5.94572L33.6259 1.26086H36.1136L33.2266 11.5588V16.4987H30.7557V11.5588H30.7577Z" fill="white"/>
<path d="M36.8618 16.1722C36.3601 15.8336 36.0026 15.3067 35.7894 14.5918C35.5783 13.8769 35.4717 12.9278 35.4717 11.7403V10.1243C35.4717 8.92646 35.5929 7.96277 35.8354 7.23735C36.0779 6.51195 36.4563 5.98095 36.9705 5.64856C37.4848 5.31617 38.16 5.14893 38.9963 5.14893C39.8199 5.14893 40.4784 5.31826 40.9759 5.65693C41.4714 5.99558 41.8351 6.52658 42.0651 7.24572C42.2951 7.96694 42.4101 8.92646 42.4101 10.1243V11.7403C42.4101 12.9278 42.2972 13.881 42.0735 14.6001C41.8498 15.3214 41.4861 15.8482 40.9843 16.1806C40.4826 16.513 39.8011 16.6802 38.9419 16.6802C38.0555 16.6823 37.3636 16.5109 36.8618 16.1722ZM39.6757 14.4288C39.8136 14.065 39.8847 13.4734 39.8847 12.6497V9.18157C39.8847 8.38296 39.8158 7.79761 39.6757 7.42968C39.5356 7.05966 39.2911 6.8757 38.9398 6.8757C38.6012 6.8757 38.3607 7.05966 38.2228 7.42968C38.0827 7.79971 38.0137 8.38296 38.0137 9.18157V12.6497C38.0137 13.4734 38.0806 14.0671 38.2144 14.4288C38.3482 14.7925 38.5886 14.9744 38.9398 14.9744C39.2911 14.9744 39.5356 14.7925 39.6757 14.4288Z" fill="white"/>
<path d="M50.5025 16.5008H48.5417L48.3242 15.1378H48.2699C47.7368 16.1664 46.9382 16.6806 45.872 16.6806C45.1341 16.6806 44.5885 16.4381 44.2373 15.9552C43.8861 15.4702 43.7104 14.7135 43.7104 13.6849V5.36671H46.217V13.5385C46.217 14.0361 46.2713 14.3894 46.38 14.6006C46.4888 14.8117 46.6706 14.9183 46.9256 14.9183C47.1431 14.9183 47.3521 14.8514 47.5529 14.7176C47.7536 14.5838 47.8999 14.4144 47.9981 14.2096V5.36462H50.5025V16.5008Z" fill="white"/>
<path d="M57.3114 3.27784H54.8237V16.5003H52.3715V3.27784H49.8838V1.26257H57.3114V3.27784Z" fill="white"/>
<path d="M63.357 16.5008H61.3961L61.1787 15.1378H61.1244C60.5913 16.1664 59.7928 16.6806 58.7265 16.6806C57.9886 16.6806 57.443 16.4381 57.0918 15.9552C56.7406 15.4702 56.5649 14.7135 56.5649 13.6849V5.36671H59.0715V13.5385C59.0715 14.0361 59.1258 14.3894 59.2345 14.6006C59.3433 14.8117 59.5251 14.9183 59.7802 14.9183C59.9976 14.9183 60.2066 14.8514 60.4073 14.7176C60.608 14.5838 60.7544 14.4144 60.8526 14.2096V5.36462H63.357V16.5008Z" fill="white"/>
<path d="M71.6524 7.14553C71.4998 6.44312 71.2551 5.93512 70.9166 5.61945C70.5779 5.30379 70.1117 5.14699 69.518 5.14699C69.0581 5.14699 68.6274 5.2766 68.2281 5.53792C67.8288 5.79924 67.5194 6.13999 67.302 6.56436H67.2832V0.698364H64.8687V16.4985H66.9383L67.1933 15.4449H67.2477C67.4421 15.8212 67.7326 16.1159 68.1194 16.3355C68.5062 16.5529 68.9368 16.6616 69.4093 16.6616C70.2559 16.6616 70.881 16.2707 71.2803 15.4909C71.6796 14.709 71.8802 13.4902 71.8802 11.8304V10.0681C71.8802 8.82421 71.8029 7.84795 71.6524 7.14553ZM69.3549 11.6882C69.3549 12.4993 69.3214 13.1349 69.2545 13.5948C69.1877 14.0547 69.0768 14.383 68.918 14.5752C68.7612 14.7696 68.5479 14.8658 68.2824 14.8658C68.0755 14.8658 67.8853 14.8177 67.7096 14.7195C67.5341 14.6233 67.3919 14.477 67.2832 14.2846V7.96501C67.3668 7.66188 67.5132 7.41521 67.7201 7.22079C67.925 7.02637 68.1508 6.9302 68.3911 6.9302C68.6463 6.9302 68.8427 7.03055 68.9807 7.22916C69.1207 7.42984 69.2169 7.76433 69.2713 8.23678C69.3256 8.70924 69.3528 9.38029 69.3528 10.252V11.6882H69.3549Z" fill="white"/>
<path d="M75.4364 12.3299C75.4364 13.0449 75.4573 13.5801 75.4991 13.9376C75.5409 14.295 75.6287 14.5543 75.7625 14.7195C75.8963 14.8825 76.1012 14.964 76.3792 14.964C76.7534 14.964 77.0126 14.8177 77.1506 14.5271C77.2907 14.2365 77.366 13.7515 77.3785 13.0742L79.5401 13.2017C79.5526 13.2979 79.5589 13.4316 79.5589 13.601C79.5589 14.6295 79.2766 15.3988 78.7143 15.9068C78.152 16.4148 77.3555 16.6699 76.327 16.6699C75.0915 16.6699 74.226 16.2831 73.7305 15.5075C73.233 14.732 72.9863 13.5341 72.9863 11.9118V9.96763C72.9863 8.29734 73.2435 7.07648 73.7577 6.30717C74.272 5.53786 75.1521 5.1532 76.4001 5.1532C77.2593 5.1532 77.9199 5.30999 78.3798 5.62566C78.8398 5.94132 79.1638 6.43051 79.3519 7.09739C79.5401 7.76426 79.6342 8.68409 79.6342 9.85892V11.7655H75.4364V12.3299ZM75.7542 7.08275C75.6266 7.23954 75.543 7.49667 75.4991 7.85415C75.4573 8.21163 75.4364 8.75307 75.4364 9.48061V10.2792H77.2698V9.48061C77.2698 8.76562 77.2447 8.22418 77.1966 7.85415C77.1486 7.48413 77.0607 7.22491 76.9332 7.0723C76.8057 6.92179 76.6092 6.84443 76.3437 6.84443C76.0761 6.84652 75.8796 6.92596 75.7542 7.08275Z" fill="white"/>
</g>
<defs>
<clipPath id="clip0_212_723">
<rect width="80" height="17.7778" fill="white"/>
</clipPath>
</defs>
</svg>
